<?xml version="1.0" standalone="no"?>
<!DOCTYPE svg PUBLIC "-//W3C//DTD SVG 20010904//EN"
 "http://www.w3.org/TR/2001/REC-SVG-20010904/DTD/svg10.dtd">
<svg version="1.0" xmlns="http://www.w3.org/2000/svg"
 width="654.000000pt" height="705.000000pt" viewBox="0 0 654.000000 705.000000"
 preserveAspectRatio="xMidYMid meet">

<g transform="translate(0.000000,705.000000) scale(0.100000,-0.100000)"
fill="#000000" stroke="none">
<path d="M0 3525 l0 -3525 3270 0 3270 0 0 3525 0 3525 -3270 0 -3270 0 0
-3525z m5101 3310 c98 -14 162 -27 219 -45 84 -25 112 -35 174 -62 189 -82
361 -211 509 -381 188 -216 294 -464 332 -772 22 -178 22 -4002 0 -4175 -23
-191 -61 -323 -134 -470 -142 -286 -326 -477 -620 -642 -110 -62 -315 -127
-476 -150 -134 -19 -3545 -19 -3690 0 -298 40 -574 170 -786 370 -254 238
-396 520 -449 889 -13 93 -14 4096 -1 4174 5 30 15 85 21 122 16 101 57 229
108 337 179 379 515 659 922 770 179 48 153 47 2016 49 1508 1 1765 -1 1855
-14z"/>
<path d="M1370 6601 c-47 -10 -92 -20 -100 -23 -8 -3 -40 -13 -70 -23 -150
-49 -362 -184 -471 -301 -110 -118 -224 -308 -269 -449 -58 -183 -53 -6 -57
-2275 -4 -2290 -7 -2164 54 -2350 99 -299 322 -560 593 -695 41 -20 82 -40 90
-44 8 -4 42 -16 75 -25 33 -10 71 -22 85 -26 108 -35 120 -35 1955 -35 1939 0
1846 -2 2025 53 352 108 651 396 769 739 71 206 65 3 68 2298 4 2328 9 2161
-69 2384 -27 77 -55 137 -96 206 -38 64 -167 229 -201 257 -232 194 -381 268
-630 313 -72 13 -319 15 -1875 14 -1644 -1 -1798 -3 -1876 -18z m2436 -1176
c128 -39 219 -158 293 -382 31 -95 41 -135 86 -333 31 -139 40 -172 72 -272
27 -85 23 -127 -16 -162 -25 -23 -84 -31 -119 -17 -53 22 -78 86 -148 391 -64
277 -99 394 -142 470 -50 89 -77 105 -157 95 -72 -9 -104 -37 -114 -102 -8
-50 4 -174 29 -308 51 -277 72 -419 90 -613 12 -129 3 -164 -49 -195 -60 -35
-104 -16 -177 74 -93 116 -210 300 -334 524 -18 33 -41 72 -51 87 -11 14 -19
29 -19 33 0 11 -109 176 -149 224 -45 56 -115 101 -155 101 -37 0 -105 -30
-125 -54 -31 -37 -6 -144 104 -451 83 -233 116 -329 140 -405 21 -67 68 -211
95 -296 5 -17 10 -41 10 -54 0 -35 -39 -86 -77 -99 -51 -19 -103 11 -215 120
-115 113 -167 174 -322 384 -153 205 -211 272 -265 307 -53 33 -69 34 -121 8
-59 -30 -90 -77 -90 -137 0 -116 70 -263 297 -621 57 -90 103 -165 103 -168 0
-3 16 -30 35 -60 19 -30 62 -110 95 -177 72 -148 77 -191 31 -238 -45 -44 -91
-40 -236 22 -100 42 -365 151 -440 180 -64 25 -208 36 -240 19 -59 -31 -75
-140 -30 -201 51 -69 131 -121 400 -259 283 -146 430 -255 518 -385 99 -147
286 -367 423 -497 46 -44 126 -104 197 -150 81 -52 99 -118 49 -178 -26 -30
-34 -34 -78 -34 -77 1 -173 67 -367 254 -107 103 -365 408 -397 469 -19 37
-90 110 -149 154 -67 50 -134 88 -341 195 -347 179 -456 277 -495 446 -13 57
-14 77 -4 125 28 129 93 220 187 264 39 18 66 21 157 22 62 0 132 -6 160 -14
76 -20 283 -97 327 -121 23 -13 38 -13 38 0 0 5 -35 65 -78 132 -207 325 -298
490 -348 633 -24 68 -28 96 -28 185 -1 97 1 110 29 163 35 71 109 141 191 182
51 25 70 29 139 29 108 -1 172 -32 275 -134 62 -62 238 -283 270 -340 5 -8 11
-12 14 -10 3 3 -13 57 -35 120 -134 383 -159 473 -159 572 0 128 57 212 189
276 71 35 82 37 166 37 79 -1 97 -4 150 -30 65 -33 159 -119 222 -205 44 -61
217 -349 272 -455 27 -50 27 -32 1 110 -43 238 -52 310 -48 415 4 118 22 169
78 234 81 92 261 139 386 101z m1502 -1292 c140 -66 237 -244 217 -399 -15
-122 -121 -258 -290 -373 -44 -30 -82 -58 -85 -61 -3 -3 -29 -23 -57 -44 -29
-20 -69 -56 -88 -79 -33 -38 -35 -45 -35 -109 0 -89 -27 -285 -56 -408 -22
-91 -66 -233 -76 -244 -4 -6 -8 -16 -8 -23 0 -24 -98 -218 -152 -300 -98 -150
-168 -225 -285 -301 -239 -155 -444 -242 -569 -242 -95 0 -153 92 -107 171 20
33 48 45 123 54 98 11 219 65 394 177 118 74 156 111 236 225 81 116 169 300
201 421 5 17 14 49 19 70 25 94 42 200 55 355 17 186 31 229 103 309 39 44
160 140 257 205 77 52 168 139 189 180 24 47 19 92 -14 150 -62 108 -112 101
-340 -51 -142 -94 -222 -135 -297 -150 -68 -14 -147 -6 -201 20 -61 29 -144
121 -187 207 -36 72 -37 80 -26 117 14 47 56 80 103 80 42 0 87 -38 119 -100
76 -147 137 -147 355 0 199 133 276 167 382 169 49 1 76 -5 120 -26z m-1845
-2394 c39 -20 57 -51 57 -100 0 -131 -175 -161 -220 -38 -11 30 -10 40 5 70
34 66 104 96 158 68z"/>
</g>
</svg>
