<?xml version="1.0" standalone="no"?>
<!DOCTYPE svg PUBLIC "-//W3C//DTD SVG 20010904//EN"
 "http://www.w3.org/TR/2001/REC-SVG-20010904/DTD/svg10.dtd">
<svg version="1.0" xmlns="http://www.w3.org/2000/svg"
 width="230.000000pt" height="219.000000pt" viewBox="0 0 230.000000 219.000000"
 preserveAspectRatio="xMidYMid meet">

<g transform="translate(0.000000,219.000000) scale(0.100000,-0.100000)"
fill="#000000" stroke="none">
<path d="M450 2164 c-154 -41 -281 -178 -310 -333 -14 -78 -13 -1394 1 -1463
26 -121 114 -240 218 -292 109 -56 113 -56 793 -56 423 0 644 4 680 11 162 34
292 157 333 314 22 87 23 1421 0 1508 -21 79 -49 131 -103 189 -55 59 -111 94
-193 119 -57 18 -101 19 -712 18 -541 0 -661 -3 -707 -15z m1293 -173 c115
-46 203 -138 238 -251 19 -63 19 -89 17 -671 l-3 -605 -38 -76 c-43 -87 -98
-142 -186 -185 l-56 -28 -560 0 -560 0 -65 31 c-115 55 -197 161 -220 283 -13
72 -13 1130 0 1202 31 164 164 294 325 318 33 5 283 8 555 7 491 -2 495 -2
553 -25z"/>
<path d="M594 1936 c-92 -29 -170 -103 -205 -196 -18 -48 -19 -82 -19 -648 0
-665 -2 -645 68 -736 24 -33 59 -62 102 -85 l65 -36 545 0 c537 0 546 0 592
22 70 32 131 94 164 166 l29 62 0 600 c0 565 -1 603 -19 655 -26 75 -110 159
-189 188 -57 22 -68 22 -575 21 -391 0 -527 -3 -558 -13z m734 -331 c35 -29
54 -72 83 -190 22 -92 21 -115 -9 -115 -23 0 -34 24 -62 139 -29 122 -55 154
-94 115 -9 -8 -16 -17 -16 -18 0 -2 7 -43 15 -90 9 -48 16 -115 18 -149 2 -57
0 -62 -20 -65 -26 -4 -52 30 -134 169 -61 103 -86 127 -118 109 -12 -6 -21
-14 -21 -18 0 -4 23 -75 50 -157 55 -163 58 -180 34 -189 -25 -10 -67 28 -141
124 -73 97 -105 118 -130 84 -20 -28 -10 -55 67 -185 87 -146 94 -164 74 -184
-14 -13 -19 -13 -52 1 -20 9 -69 28 -108 42 -61 23 -74 24 -88 13 -21 -18 -20
-44 2 -63 9 -8 57 -37 106 -64 75 -41 100 -62 158 -131 37 -45 91 -101 118
-125 53 -45 59 -58 36 -77 -20 -17 -99 40 -164 119 -93 113 -107 125 -189 168
-139 72 -179 147 -114 213 35 35 65 37 146 9 32 -11 60 -20 62 -20 2 0 -13 26
-33 58 -49 76 -94 172 -94 200 0 56 46 101 104 102 31 0 45 -7 75 -37 20 -21
47 -51 59 -68 19 -27 19 -22 -8 58 -33 97 -35 118 -19 149 14 27 74 51 109 43
34 -7 78 -53 125 -130 l36 -60 -8 50 c-13 83 -10 131 12 155 41 46 90 51 133
15z m390 -339 c27 -14 45 -40 57 -83 10 -35 -20 -79 -90 -134 -62 -48 -65 -53
-65 -93 0 -102 -64 -252 -132 -310 -46 -40 -138 -86 -171 -86 -14 0 -30 7 -37
15 -17 20 1 41 43 49 17 4 56 21 85 39 84 51 136 150 151 289 8 75 21 94 104
155 48 36 62 74 36 100 -14 14 -26 10 -97 -34 -73 -43 -114 -44 -153 -2 -32
35 -38 73 -12 83 12 5 25 -2 43 -24 30 -37 44 -37 93 -4 37 25 94 53 110 54 4
0 20 -6 35 -14z m-495 -668 c6 -18 -11 -48 -27 -48 -20 0 -37 25 -30 44 7 19
50 22 57 4z"/>
</g>
</svg>
